<svg id="Layer_5" enable-background="new 0 0 64 64" height="512" viewBox="0 0 64 64" width="512" xmlns="http://www.w3.org/2000/svg"><g><path d="m6.658 29c1.125-.546 2.367-.888 3.677-.975.206-.359.436-.699.68-1.025h-7.015c-.551 0-1-.449-1-1s.449-1 1-1h1c1.654 0 3-1.346 3-3s-1.346-3-3-3-3-1.346-3-3 1.346-3 3-3h2v-1c0-1.654 1.346-3 3-3h1v-3c0-1.654 1.346-3 3-3h1v-2h-1c-2.757 0-5 2.243-5 5v1.101c-1.956.398-3.501 1.943-3.899 3.899h-.101c-2.757 0-5 2.243-5 5s2.243 5 5 5c.551 0 1 .449 1 1s-.449 1-1 1h-1c-1.654 0-3 1.346-3 3s1.346 3 3 3z"/><path d="m14 15v1c0 1.654-1.346 3-3 3h-1v3c0 1.654 1.346 3 3 3h.006c1.694-1.275 3.777-2 5.994-2h-6c-.551 0-1-.449-1-1v-1.101c1.984-.404 3.545-1.988 3.916-3.983 2.321-.432 4.084-2.472 4.084-4.916 2.757 0 5-2.243 5-5v-6h-2v6c0 1.654-1.346 3-3 3h-2v2c0 1.654-1.346 3-3 3z"/><path d="m58 9h-3v2h3c1.654 0 3 1.346 3 3s-1.346 3-3 3h-8v1c0 1.654-1.346 3-3 3h-3c-2.757 0-5 2.243-5 5v1.989c.756.566 1.429 1.24 2 2.005v-3.994c0-1.654 1.346-3 3-3h3c2.415 0 4.435-1.721 4.899-4h6.101c2.757 0 5-2.243 5-5s-2.243-5-5-5z"/><path d="m37 18c0-2.757 2.243-5 5-5h5v-1c0-1.654 1.346-3 3-3h1v-2h-1c-2.415 0-4.435 1.721-4.899 4h-3.101c-3.86 0-7 3.14-7 7v8.204c.694.139 1.363.35 2 .626z"/><path d="m32 33c-2.757 0-5 2.243-5 5v6c0 2.757 2.243 5 5 5s5-2.243 5-5v-6c0-2.757-2.243-5-5-5z"/><path d="m51.541 43.42-.824-.276.159-.854c.082-.444.124-.878.124-1.29 0-3.859-3.14-7-7-7-.714 0-1.419.107-2.095.319l-.961.302-.295-.964c-1.034-3.384-4.108-5.657-7.649-5.657-1.907 0-3.756.688-5.208 1.937l-.997.857-.56-1.19c-1.316-2.797-4.156-4.604-7.235-4.604-3.052 0-5.795 1.705-7.159 4.448l-.274.551-.616.004c-4.384.026-7.951 3.614-7.951 7.997 0 3.024 1.682 5.757 4.388 7.131l.882.448-.438.887c-.552 1.116-.832 2.305-.832 3.534 0 4.411 3.589 8 8 8 2.893 0 5.57-1.573 6.985-4.107l.539-.964.906.632c2.18 1.521 5.03 1.861 7.522.869l1.042-.415.294 1.082c.943 3.475 4.114 5.903 7.712 5.903 2.042 0 3.99-.777 5.484-2.188l.434-.409.567.188c.822.271 1.668.409 2.515.409 4.411 0 8-3.589 8-8 0-3.439-2.194-6.486-5.459-7.58zm-36.541 12.58c-3.309 0-6-2.691-6-6h2c0 2.206 1.794 4 4 4zm8-17h-2v-1c0-2.757-2.243-5-5-5s-5 2.243-5 5v6c0 2.757 2.243 5 5 5s5-2.243 5-5v-1h2v1c0 3.859-3.14 7-7 7s-7-3.141-7-7v-6c0-3.859 3.14-7 7-7s7 3.141 7 7zm16 5c0 3.859-3.14 7-7 7s-7-3.141-7-7v-6c0-3.859 3.14-7 7-7s7 3.141 7 7zm11 11v2h-10v-2.489l7.842-6.099c.736-.572 1.158-1.435 1.158-2.368 0-1.698-1.346-3.044-3-3.044s-3 1.346-3 3v1h-2v-1c0-2.757 2.243-5 5-5s5 2.243 5 5c0 1.598-.704 3.036-1.931 3.99l-6.44 5.01z"/></g></svg>