<svg height="512pt" viewBox="0 0 512 512.001" width="512pt" xmlns="http://www.w3.org/2000/svg"><path d="m475.789062 412.148438 10.605469-10.605469c3.914063-3.910157 5.355469-9.660157 3.75-14.953125-1.601562-5.292969-5.988281-9.277344-11.414062-10.363282l-26.726563-5.34375v-264.882812c0-8.285156-6.71875-15-15-15h-105.003906v-46c0-24.8125-20.183594-45-45-45h-121c-24.8125 0-45 20.1875-45 45v46h-106c-8.285156 0-15 6.714844-15 15v331c0 8.285156 6.714844 15 15 15h355.882812l5.34375 26.730469c1.085938 5.425781 5.066407 9.8125 10.363282 11.414062 5.289062 1.601563 11.039062.164063 14.953125-3.75l10.605469-10.605469 31.820312 31.820313c5.851562 5.855469 15.355469 5.855469 21.210938 0l42.429687-42.425781c5.851563-5.855469 5.855469-15.355469 0-21.214844zm-324.789062-367.148438c0-8.269531 6.730469-15 15-15h121c8.273438 0 15 6.730469 15 15v46h-151zm-121 76h392.003906v45c0 41.355469-33.648437 75-75.003906 75h-76v-15c0-8.28125-6.714844-15-15-15h-60c-8.28125 0-15 6.71875-15 15v15h-76c-41.355469 0-75-33.644531-75-75zm181 120h30v30h-30zm-181 181v-182.59375c19.074219 19.480469 45.648438 31.59375 75 31.59375h76v15c0 8.285156 6.71875 15 15 15h60c8.285156 0 15-6.714844 15-15v-15h76c29.355469 0 55.929688-12.113281 75.003906-31.59375v125.476562l-49.339844-9.871093c-4.917968-.984375-10 .558593-13.546874 4.105469-3.546876 3.542968-5.085938 8.628906-4.105469 13.546874l9.871093 49.335938zm424.574219 53.789062-31.816407-31.820312c-5.859374-5.855469-15.355468-5.855469-21.214843 0l-1.394531 1.398438c.019531.097656-.683594-3.410157-11.304688-56.523438 6.273438 1.253906 50.949219 10.191406 56.519531 11.304688l-1.394531 1.394531c-2.8125 2.8125-4.394531 6.628906-4.394531 10.605469 0 3.980468 1.578125 7.792968 4.394531 10.605468l31.820312 31.820313zm0 0"/></svg>