<?xml version="1.0" encoding="iso-8859-1"?>
<!-- Generator: Adobe Illustrator 19.0.0, SVG Export Plug-In . SVG Version: 6.00 Build 0)  -->
<svg version="1.1" id="Capa_1" xmlns="http://www.w3.org/2000/svg" xmlns:xlink="http://www.w3.org/1999/xlink" x="0px" y="0px"
	 viewBox="0 0 512 512" style="enable-background:new 0 0 512 512;" xml:space="preserve">
<g>
	<g>
		<g>
			<path d="M70.878,211.568h69.511c34.75,0,63.121-28.032,64.166-62.883c0.016-0.329,0.05-0.654,0.05-0.987
				c0-0.167-0.011-0.331-0.013-0.498c0.001-0.168,0.013-0.332,0.013-0.5c0-0.336-0.034-0.664-0.05-0.995
				c-0.648-21.421-11.664-40.262-28.176-51.581c2.341-3.697,4.314-7.674,5.84-11.9c2.413-6.683,3.638-13.699,3.638-20.849
				C185.856,27.534,158.323,0,124.48,0H70.878C59.854,0,50.919,8.936,50.919,19.959v171.649
				C50.919,202.632,59.854,211.568,70.878,211.568z M90.837,39.918h33.643c11.832,0,21.457,9.626,21.457,21.458
				c0,2.515-0.425,4.968-1.264,7.29c-3.06,8.474-11.175,14.167-20.193,14.167c-0.547,0-1.085,0.039-1.621,0.082H90.837V39.918z
				 M90.837,122.834h49.391c13.094,0,24.174,11.109,24.445,24.367c-0.271,13.304-11.277,24.448-24.284,24.448H90.837V122.834z"/>
			<path d="M392.221,211.568c39.62,0,71.853-32.233,71.853-71.853V71.853C464.075,32.233,431.841,0,392.221,0
				c-39.62,0-71.853,32.233-71.853,71.853v67.861C320.368,179.335,352.601,211.568,392.221,211.568z M360.287,71.853
				c0-17.609,14.326-31.935,31.935-31.935s31.935,14.326,31.935,31.935v67.861c0,17.609-14.326,31.935-31.935,31.935
				s-31.935-14.326-31.935-31.935V71.853z"/>
			<path d="M511.956,250.566c0.005-0.117,0.01-0.234,0.013-0.351c0.307-10.951-8.268-20.102-19.215-20.506
				c-4.475-0.172-110.358-3.337-172.359,58.665c-23.862,23.863-35.873,49.832-35.699,77.183
				c0.114,17.939,5.591,33.008,10.641,43.818c-17.65,18.949-30.439,34.902-39.338,47.048c-8.899-12.145-21.688-28.099-39.339-47.048
				c5.052-10.81,10.529-25.878,10.642-43.816c0.174-27.351-11.837-53.32-35.699-77.184
				c-62.002-62.002-167.883-58.837-172.359-58.664c-10.91,0.403-19.438,9.494-19.192,20.394
				c-0.284,12.624-0.545,111.928,58.699,171.172c23.689,23.688,49.615,35.699,77.057,35.699c0.379,0,32.818-0.192,57.114-14.337
				c32.534,35.918,44.597,58.057,44.903,58.63c3.491,6.653,10.212,10.513,17.234,10.674c0.476,0.034,0.953,0.057,1.428,0.057
				c7.191,0,14.129-3.898,17.681-10.724c0.33-0.623,34.302-63.305,144.408-150.148c8.655-6.826,10.137-19.376,3.31-28.032
				c-6.827-8.656-19.377-10.136-28.032-3.31c-26.493,20.895-48.826,40.489-67.566,58.349c-1.002-4.033-1.648-8.327-1.677-12.83
				c-0.105-16.511,7.748-32.443,24.009-48.703c35.464-35.464,92.719-44.257,122.778-46.378
				c-2.117,30.062-10.904,87.351-46.38,122.826c-8.627,8.627-17.403,15.001-26.085,18.945c-10.036,4.559-14.476,16.391-9.917,26.427
				c3.343,7.359,10.595,11.708,18.184,11.708c2.76,0,5.567-0.576,8.243-1.792c13.057-5.931,25.776-15.037,37.802-27.063
				C511.822,362.701,512.229,264.971,511.956,250.566z M185.709,378.135c-18.74-17.86-41.073-37.453-67.566-58.349
				c-8.654-6.827-21.205-5.344-28.032,3.31c-6.827,8.654-5.344,21.206,3.31,28.032c28.082,22.149,51.199,42.721,70.082,61.097
				c-9.665,3.217-21.176,4.833-27.695,4.833c-16.702-0.002-32.675-7.855-48.83-24.01c-35.482-35.482-44.265-92.777-46.38-122.824
				c30.074,2.123,87.322,10.919,122.779,46.376c16.261,16.262,24.114,32.193,24.009,48.704
				C187.357,369.807,186.712,374.103,185.709,378.135z"/>
			<path d="M260.491,212.566c11.023,0,19.959-8.936,19.959-19.959V19.959C280.45,8.936,271.514,0,260.491,0
				c-11.023,0-19.959,8.936-19.959,19.959v172.647C240.531,203.63,249.467,212.566,260.491,212.566z"/>
		</g>
	</g>
</g>
<g>
</g>
<g>
</g>
<g>
</g>
<g>
</g>
<g>
</g>
<g>
</g>
<g>
</g>
<g>
</g>
<g>
</g>
<g>
</g>
<g>
</g>
<g>
</g>
<g>
</g>
<g>
</g>
<g>
</g>
</svg>
