<svg id="Capa_1" enable-background="new 0 0 512 512" height="512" viewBox="0 0 512 512" width="512" xmlns="http://www.w3.org/2000/svg"><path d="m312.592 249.363c-11.639-6.693-23.248-13.444-34.87-20.166 6.319-14.83 12.803-29.975 18.725-45.256 2.008-5.182 1.32-11.005-1.839-15.577-6.499-9.405-18.804-9.847-27.197-1.864-23.981 22.807-47.666 45.118-71.527 67.728-4.228 4.006-6.315 9.429-5.727 14.88.583 5.394 3.729 10.186 8.634 13.146 11.806 7.127 23.685 13.816 35.496 20.569-6.626 15.644-12.788 29.816-18.741 45.204-3.208 8.292.474 17.5 8.563 21.417 6.402 3.1 13.723 2.452 20.466-3.961 21.488-20.437 49.433-46.755 71.546-67.737 4.274-4.056 6.354-9.513 5.703-14.971-.659-5.529-4.024-10.417-9.232-13.412zm-6.796 17.499c-23.444 22.233-47.966 45.425-71.531 67.724-2.172 2.055-2.874 1.717-3.619 1.356-.844-.408-1.551-1.366-1.11-2.503 6.445-16.648 13.376-32.516 20.652-49.724 1.422-3.363 1.252-8.341-3.903-11.303-13.236-7.604-26.59-15.063-39.741-22.999-1.672-1.009-1.969-2.756-.344-4.296 23.906-22.667 47.536-44.9 71.55-67.749 1.927-1.834 5.517-.928 4.71 1.155-6.457 16.674-13.704 33.362-20.63 49.73-1.876 4.434-.358 8.876 3.868 11.319 13.141 7.597 26.259 15.227 39.417 22.793 2.146 1.236 2.156 3.098.681 4.497zm-49.796-266.862c-79.162 0-153.668 36.532-202.237 99.021-2.542 3.271-1.951 7.982 1.319 10.524 3.268 2.541 7.98 1.952 10.524-1.318 36.428-46.832 89.663-79.279 147.992-89.539.499 3.776.597 7.516.289 11.176-.966 11.462-5.383 17.693-12.068 27.126-5.87 8.282-13.177 18.589-19.729 35.343-9.93 25.387-9.324 42.947-8.838 57.057.434 12.592.748 21.689-6.553 32.595-9.789 14.623-23.743 17.983-43.058 22.635-14.148 3.408-30.184 7.27-48.573 16.318-22.062 10.855-42.098 26.799-59.75 47.517-2.506-48.835 9.68-96.881 35.128-138.338 2.167-3.53 1.062-8.148-2.469-10.315-3.529-2.166-8.148-1.062-10.314 2.469-24.64 40.146-37.663 86.388-37.663 133.729 0 139.219 114.737 256 256 256 138.558 0 256-116.186 256-256 0-141.925-114.991-256-256-256zm10.198 451.343c-11 14.005-11.186 30.391-9.109 45.644-52.923.221-103.267-16.446-144.939-47.576 2.755-3.906 4.971-8.111 6.694-12.714 6.806-18.183 2.714-33.932-.274-45.432-2.122-8.169-3.318-13.289-1.253-15.514 2.814-3.031 12.634.567 24.002 4.732 15.304 5.606 36.263 13.284 62.598 13.808 27.938.561 47.598-7.223 63.379-13.473 16.762-6.64 27.837-11.027 42.027-4.507 19.569 8.991 32.576 32.207 28.377 43.641-1.983 5.399-10.241 7.138-23.606 9.359-15.676 2.606-35.185 5.848-47.896 22.032zm5.957 45.112c-1.976-13.2-2.141-25.685 5.84-35.847 9.115-11.606 24.083-14.094 38.558-16.5 14.794-2.459 30.092-5.002 35.227-18.986 7.266-19.782-10.663-50.711-36.195-62.441-20.015-9.197-36.432-2.693-53.813 4.191-15.286 6.055-32.598 12.919-57.556 12.421-23.829-.474-42.63-7.361-57.736-12.896-16.396-6.006-30.555-11.195-40.156-.851-7.761 8.361-4.97 19.103-2.271 29.49 2.76 10.621 5.887 22.659.743 36.402-1.156 3.088-2.621 5.93-4.408 8.589-45.573-38.65-74.825-91.766-83.007-150.03 18.52-24.995 40.138-43.706 64.313-55.601 16.896-8.313 32.072-11.969 45.463-15.194 20.906-5.035 38.963-9.384 52.01-28.874 9.993-14.929 9.549-27.814 9.079-41.456-.462-13.394-.985-28.575 7.815-51.077 5.884-15.042 12.319-24.122 17.997-32.133 7.228-10.196 13.47-19.002 14.778-34.542.404-4.796.267-9.676-.394-14.58 9.078-1.02 18.268-1.54 27.558-1.54 23.581 0 46.64 3.377 68.638 9.878-11.415 20.145-14.147 44.347-6.342 61.729 6.106 13.604 17.119 19.972 25.967 25.089 8.756 5.064 13.771 8.246 15.019 14.761 1.328 6.928-2.647 12.552-9.244 21.153-7.136 9.305-16.017 20.886-15.093 37.804.686 12.543 6.241 18.929 12.124 25.689 4.374 5.027 9.333 10.726 13.9 20.813 8.187 18.078 6.657 31.521 5.178 44.521-1.446 12.706-2.941 25.845 5.562 40.352 15.058 25.688 47.086 32.333 81.378 37.367 4.008.588 7.904-2.201 8.51-6.331.602-4.099-2.233-7.908-6.332-8.51-31.705-4.654-58.903-10.132-70.614-30.111-5.976-10.194-4.927-19.407-3.6-31.071 1.549-13.614 3.478-30.556-6.417-52.404-5.474-12.088-11.448-18.954-16.249-24.471-5.195-5.971-8.057-9.26-8.461-16.661-.622-11.376 5.518-19.381 12.018-27.857 6.906-9.006 14.734-19.214 12.073-33.104-2.599-13.563-13.034-19.598-22.241-24.923-8.058-4.66-15.669-9.062-19.793-18.248-6.149-13.697-3.044-34.304 7.243-50.757 32.381 11.888 62.072 30.763 87.191 55.881 45.517 45.517 70.585 106.037 70.585 170.411 0 124.927-100.151 232.783-224.845 240.455z"/></svg>